<svg preserveAspectRatio="none" overflow="visible" style="display: block;" width="9.02335" height="12" viewBox="0 0 9.02335 12" fill="none" xmlns="http://www.w3.org/2000/svg">
<path id="Vector" d="M7.89543 4.51168C7.89543 2.64356 6.37979 1.12792 4.51168 1.12792C2.64356 1.12792 1.12792 2.64356 1.12792 4.51168C1.12792 4.80305 1.23366 5.25422 1.48744 5.85578C1.73418 6.43854 2.0843 7.08239 2.48612 7.73329C3.15582 8.81892 3.93127 9.86694 4.51168 10.6142C5.09443 9.86694 5.86988 8.81892 6.53723 7.73329C6.93905 7.08239 7.28918 6.43854 7.53591 5.85578C7.78969 5.25422 7.89543 4.80305 7.89543 4.51168ZM9.02335 4.51168C9.02335 6.56543 6.27405 10.2218 5.06859 11.7304C4.77956 12.0899 4.2438 12.0899 3.95477 11.7304C2.7493 10.2218 0 6.56543 0 4.51168C0 2.02085 2.02085 0 4.51168 0C7.0025 0 9.02335 2.02085 9.02335 4.51168ZM5.26362 4.51168C5.26362 4.31225 5.1844 4.12099 5.04338 3.97997C4.90236 3.83895 4.7111 3.75973 4.51168 3.75973C4.31225 3.75973 4.12099 3.83895 3.97997 3.97997C3.83895 4.12099 3.75973 4.31225 3.75973 4.51168C3.75973 4.7111 3.83895 4.90236 3.97997 5.04338C4.12099 5.1844 4.31225 5.26362 4.51168 5.26362C4.7111 5.26362 4.90236 5.1844 5.04338 5.04338C5.1844 4.90236 5.26362 4.7111 5.26362 4.51168ZM2.63181 4.51168C2.63181 4.0131 2.82987 3.53495 3.18241 3.18241C3.53495 2.82987 4.0131 2.63181 4.51168 2.63181C5.01025 2.63181 5.4884 2.82987 5.84094 3.18241C6.19348 3.53495 6.39154 4.0131 6.39154 4.51168C6.39154 5.01025 6.19348 5.4884 5.84094 5.84094C5.4884 6.19348 5.01025 6.39154 4.51168 6.39154C4.0131 6.39154 3.53495 6.19348 3.18241 5.84094C2.82987 5.4884 2.63181 5.01025 2.63181 4.51168Z" fill="#1E1F1E"/>
</svg>
